<svg width="21" height="26" viewBox="0 0 21 26" fill="none" xmlns="http://www.w3.org/2000/svg">
<path fill-rule="evenodd" clip-rule="evenodd" d="M3.11866 3.2373V4.45764C3.11866 5.12883 3.66781 5.67798 4.339 5.67798H11.661C12.3322 5.67798 12.8814 5.12883 12.8814 4.45764V3.2373H16.5424C17.2136 3.2373 17.7627 3.78646 17.7627 4.45764V23.9831C17.7627 24.6543 17.2136 25.2034 16.5424 25.2034H-0.542356C-1.21354 25.2034 -1.7627 24.6543 -1.7627 23.9831V4.45764C-1.7627 3.78646 -1.21354 3.2373 -0.542356 3.2373H3.11866Z" stroke="#242424" stroke-linecap="round" stroke-linejoin="round"/>
<path fill-rule="evenodd" clip-rule="evenodd" d="M11.661 5.67799H4.33899C3.6678 5.67799 3.11865 5.12883 3.11865 4.45765V2.01697C3.11865 1.34578 3.6678 0.796631 4.33899 0.796631H11.661C12.3322 0.796631 12.8814 1.34578 12.8814 2.01697V4.45765C12.8814 5.12883 12.3322 5.67799 11.661 5.67799Z" stroke="#242424" stroke-linecap="round" stroke-linejoin="round"/>
<path d="M8.00006 20.3221H8.01227" stroke="#242424" stroke-linecap="round" stroke-linejoin="round"/>
<path d="M5.55933 13.0488C5.60814 12.6949 5.75458 12.0359 6.24272 11.4502C6.36475 11.2915 6.59661 11.0109 6.99933 10.8034C7.48746 10.5593 7.92678 10.5593 8.12204 10.5593C8.3417 10.5593 8.86644 10.5837 9.40339 10.9376C10.0624 11.377 10.2698 12.0115 10.3309 12.2068C10.3675 12.3044 10.5627 12.9512 10.3309 13.6834C10.1966 14.1471 9.95255 14.44 9.74509 14.6963C8.89085 15.7092 8.13424 15.6237 8 16.2827C7.9878 16.3071 8 16.4414 8 16.661" stroke="#242424" stroke-linecap="round" stroke-linejoin="round"/>
</svg>
