<svg width="739" height="293" viewBox="0 0 739 293" fill="none" xmlns="http://www.w3.org/2000/svg">
<path d="M701.927 262.564V333.191H594.819L615.688 224.735C615.019 229.017 628.378 237.045 646.658 245.095C653.218 247.985 660.534 250.854 668.347 253.572C680.95 257.983 692.561 260.98 701.927 262.564C701.906 262.564 701.927 262.564 701.927 262.564Z" fill="#9A3B82"/>
<path d="M703.233 241.72V260.887C693.745 259.281 682.006 256.263 669.195 251.792C639.004 241.264 615.766 228.261 617.077 222.422C617.099 222.335 617.121 222.248 617.143 222.183C619.176 216.474 645.913 220.425 676.519 231.083C686.356 234.513 695.232 238.051 702.687 241.459C702.862 241.546 703.037 241.633 703.233 241.72Z" fill="#FFCF2D"/>
<path d="M688.866 78.8364C678.287 78.8364 669.719 87.1335 669.719 97.3568V148.113C669.719 158.337 661.151 166.634 650.594 166.634H573.92C584.499 166.634 593.045 158.337 593.045 148.113V97.3568C593.045 87.1124 601.613 78.8364 612.17 78.8364H688.866V78.8364Z" fill="white" stroke="#FFCF2D"/>
<rect x="606.575" y="105.95" width="47.023" height="43.8987" fill="white" stroke="#FFCF2D"/>
<path d="M653.598 112.729H606.575" stroke="#FFCF2D"/>
<path d="M653.598 117.893H606.575" stroke="#FFCF2D"/>
<path d="M653.598 124.349H606.575" stroke="#FFCF2D"/>
<path d="M653.598 130.805H606.575" stroke="#FFCF2D"/>
<path d="M653.598 137.26H606.575" stroke="#FFCF2D"/>
<path d="M653.598 143.716H606.575" stroke="#FFCF2D"/>
<path d="M669.272 96.9123C669.272 86.9757 677.456 78.919 687.559 78.8364C697.683 78.919 705.846 86.9757 705.846 96.9123H669.272Z" fill="#66B0F0" stroke="#FFCF2D"/>
<path d="M650.986 166.634C650.964 166.634 650.92 166.634 650.898 166.634H574.477C574.433 166.634 574.389 166.634 574.345 166.634C566.495 166.538 559.783 162.3 556.94 156.305H633.515C636.379 162.3 643.092 166.538 650.986 166.634Z" fill="#FFCF2D"/>
<path d="M609.188 100.786H601.351V93.0389H605.036V97.3427C605.036 97.4383 605.075 97.5101 605.114 97.534L605.133 97.5579L609.188 100.786Z" fill="#FE5244"/>
<path d="M613.106 95.6455V96.693C613.106 96.8879 613.084 97.0828 613.084 97.2777C613.084 97.3264 613.061 97.3995 613.061 97.4482C613.039 97.5457 613.039 97.6431 613.016 97.7406C612.769 99.0804 612.028 100.177 611.108 100.591C611.04 100.615 610.973 100.64 610.906 100.664C610.793 100.713 610.658 100.737 610.546 100.761C610.501 100.761 610.456 100.786 610.411 100.786L605.269 97.1559C605.314 96.3033 605.808 95.6212 606.392 95.6212H613.106V95.6455Z" fill="#FE5244"/>
<path d="M660.129 93.0389V100.786H652.292L656.327 97.5579L656.346 97.534V97.534C656.366 97.5101 656.366 97.5101 656.385 97.5101C656.385 97.4861 656.405 97.4861 656.405 97.4622C656.405 97.4622 656.405 97.4383 656.424 97.4383C656.424 97.4144 656.424 97.4144 656.443 97.4144V97.4144C656.443 97.4144 656.443 97.4144 656.443 97.3905C656.443 97.3666 656.443 97.3666 656.443 97.3427V93.0389H660.129V93.0389Z" fill="#FE5244"/>
<path d="M656.211 97.1392L651.068 100.786C650.934 100.761 650.799 100.737 650.664 100.712C650.619 100.688 650.574 100.688 650.529 100.663C650.462 100.639 650.417 100.614 650.35 100.59C650.305 100.565 650.237 100.541 650.192 100.517C649.496 100.1 648.912 99.2928 648.621 98.2894C648.576 98.1426 648.531 97.9957 648.508 97.8489C648.486 97.7999 648.486 97.7265 648.463 97.6531C648.418 97.3349 648.374 97.0168 648.374 96.6742V95.6218H655.11C655.672 95.5973 656.166 96.2826 656.211 97.1392Z" fill="#FE5244"/>
<path d="M657.517 89.3794V95.6212C657.473 95.5769 657.429 95.5105 657.385 95.4662C657.296 95.3777 657.208 95.3113 657.12 95.2449C656.9 95.1121 656.657 95.0235 656.415 95.0235H606.371C606.106 95.0235 605.864 95.1121 605.666 95.2449C605.578 95.3113 605.489 95.3777 605.401 95.4662C605.357 95.5105 605.313 95.5548 605.269 95.6212V89.3794C605.269 88.5383 605.754 87.8743 606.371 87.8743H656.415C657.01 87.8743 657.517 88.5605 657.517 89.3794Z" fill="#FE5244"/>
<path d="M703.234 176.909V260.887H703.212C693.803 259.302 682.161 256.324 669.457 251.911C661.609 249.19 654.259 246.298 647.669 243.427L651.203 223.933L657.208 190.834C638.368 185.007 635.312 167.098 635.312 167.098H650.466C660.958 167.098 669.435 158.7 669.435 148.353V142.183H659.701C652.872 142.183 647.322 135.542 647.322 128.794V126.609H668.958C672.969 126.609 676.741 128.472 679.148 131.643L694.974 152.53C700.35 159.557 703.234 168.105 703.234 176.909Z" fill="#A0505A"/>
<path d="M701.928 242.381V260.887H701.906C692.617 259.336 681.122 256.423 668.579 252.106C660.831 249.444 653.574 246.615 647.067 243.807L650.556 224.735C658.262 226.579 666.824 229.073 675.728 232.133C685.36 235.444 694.051 238.861 701.328 242.151C701.564 242.214 701.735 242.298 701.928 242.381Z" fill="#73325A"/>
<path d="M670.579 142.102H659.817C652.783 142.102 647.067 135.496 647.067 128.782V126.609H670.579V142.102Z" fill="#A0505A"/>
<path d="M664.048 162.76C664.048 162.76 678.419 168.581 679.722 188.583" stroke="#73325A"/>
<path d="M656.21 191.488H666.66" stroke="#73325A"/>
<path d="M546.49 -116.126L635.101 -66.1964L679.722 31.0642L628.531 -2.41204L572.902 -65.6895L546.49 -116.126Z" fill="#9A3B82"/>
<path d="M547.796 -119.999L638.135 -68.3009L683.641 32.3553" stroke="#FFCF2D"/>
<ellipse cx="600.044" cy="-32.2016" rx="28.7363" ry="33.5696" fill="white"/>
<ellipse cx="597.432" cy="-30.9105" rx="28.7363" ry="32.2785" fill="white" stroke="#FFCF2D"/>
<path d="M635.587 -6.80437L627.241 0.0768757C628.79 -1.20678 628.445 -4.44749 626.574 -8.97186C623.497 -16.4213 616.291 -27.3008 606.696 -38.4539C597.08 -49.586 587.313 -58.3611 580.322 -62.5698C576.084 -65.1372 572.857 -66.021 571.308 -64.7373L579.655 -71.6186C583.742 -75.0066 600.307 -63.9377 615.753 -46.0296C631.199 -28.1215 639.696 -10.1713 635.587 -6.80437Z" fill="#FFCF2D"/>
<path d="M551.715 242.832V333.191H447.219L460.609 235.064C460.609 239.034 480.997 243.985 506.151 246.119C531.305 248.274 551.715 246.802 551.715 242.832Z" fill="#66B0F0"/>
<path d="M550.409 240.041C550.409 243.808 530.517 245.206 505.998 243.16C481.479 241.115 461.587 236.416 461.587 232.669V232.669C461.587 228.902 481.479 227.505 505.998 229.55C530.538 231.576 550.409 236.274 550.409 240.041Z" fill="#3FB1B5"/>
<path d="M564.461 40.1022L570.613 44.0829C576.765 48.843 568.254 70.1158 551.61 91.5571C534.966 113.019 516.49 126.541 510.338 121.781L507.304 118.917" stroke="#66B0F0"/>
<path d="M477.262 140.811L548.881 76.3481L573.92 1.36798L497.484 69.6766L477.262 140.811Z" fill="#66B0F0"/>
<path d="M474.649 148.558L551.472 77.9871L576.533 1.36798" stroke="#FE5244" stroke-linecap="round"/>
<path d="M515.141 76.2541L448.295 139.538C445.046 142.606 439.738 139.706 440.651 135.334L442.519 126.36C443.369 122.303 438.718 119.34 435.342 121.778L413.258 137.688" stroke="#FE5244"/>
<path d="M394.326 161.935C392.271 163.656 390.216 165.244 388.227 166.634C386.57 165.597 385.045 164.296 383.697 162.707C382.371 161.119 381.333 159.399 380.604 157.59C382.327 155.869 384.227 154.127 386.282 152.384C396.557 143.76 406.678 138.885 408.91 141.532C411.119 144.179 404.601 153.311 394.326 161.935Z" fill="#FFCF2D"/>
<ellipse cx="410.646" cy="139.52" rx="2.6124" ry="2.58228" stroke="#FE5244"/>
<path d="M517.754 174.22V244.102C513.847 243.931 509.687 243.675 505.4 243.29C489.583 241.901 475.73 239.294 467.98 236.558L469.142 228.822L473.027 202.857H468.002C460.843 202.857 455.057 197.001 455.057 189.757V164.026C455.057 158.94 456.873 154.046 460.188 150.221L476.723 131.094C477.8 129.855 479.827 130.624 479.827 132.269V158.278C479.827 161.398 478.729 164.411 476.723 166.783L475.245 168.535H493.195C495.792 168.535 497.312 165.608 495.855 163.428C493.638 160.158 490.724 155.499 487.957 150.114C482.446 139.45 492.012 133.488 492.012 133.488L513.911 162.231C516.402 165.715 517.754 169.925 517.754 174.22Z" fill="#FFCF2D"/>
<path d="M479.874 130.482V158.664C479.874 161.874 478.622 164.973 476.335 167.413L474.649 169.216" stroke="white" stroke-linecap="round"/>
<path d="M475.956 169.216L462.894 182.128" stroke="white" stroke-linecap="round"/>
<path d="M479.875 147.267C479.875 150.324 478.827 153.276 476.913 155.6L475.503 157.317L464.2 170.507" stroke="white" stroke-linecap="round"/>
<path d="M479.875 134.355C479.875 137.412 478.827 140.364 476.913 142.688L475.503 144.405L464.2 157.596" stroke="white" stroke-linecap="round"/>
<path d="M472.038 204.4H482.487" stroke="white" stroke-linecap="round"/>
<path d="M517.754 230.878V244.102C513.858 243.938 509.71 243.693 505.435 243.324C489.662 241.994 475.847 239.496 468.119 236.876L469.277 229.466C477.195 228.34 490.441 228.278 505.456 229.548C509.71 229.937 513.837 230.366 517.754 230.878Z" fill="#FE5244"/>
<path d="M411.952 333.191H291.782V214.427C291.782 219.497 311.541 223.599 335.933 223.599C360.325 223.599 380.084 219.497 380.084 214.427V214.406L411.952 333.191Z" fill="#3FB1B5"/>
<path d="M380.603 213.094V213.094C380.603 218.11 360.732 222.153 336.193 222.153C311.654 222.153 291.782 218.11 291.782 213.115V213.094C291.848 208.12 311.698 204.077 336.193 204.077C360.688 204.077 380.56 208.12 380.603 213.094Z" fill="#66B0F0"/>
<path d="M380.603 213.123C380.45 218.107 360.669 222.153 336.297 222.153C331.597 222.153 327.094 222.004 322.854 221.727V177.921H299.728C296.777 177.921 294.395 175.599 294.395 172.724V169.211C294.395 167.635 295.116 166.229 296.252 165.271C295.116 164.313 294.395 162.907 294.395 161.331V157.817C294.395 156.433 294.963 155.155 295.881 154.239C294.963 153.302 294.395 152.046 294.395 150.662V147.148C294.395 145.721 294.985 144.422 295.946 143.464C294.985 142.527 294.395 141.228 294.395 139.801V133.433C294.395 130.558 296.777 128.237 299.728 128.237H329.258C330.242 127.683 331.838 125.724 329.127 124.574L322.788 123.126C317.761 120.677 314.57 116.609 314.57 111.115H336.865C340.603 111.115 343.947 113.415 345.215 116.843L380.057 211.611L380.603 213.123Z" fill="#E57281"/>
<path d="M379.297 213.21C379.232 213.147 379.189 213.104 379.189 213.104C379.189 218.105 359.496 222.153 335.178 222.153C330.51 222.153 326.037 222.004 321.825 221.729V204.501C326.037 204.225 330.531 204.077 335.178 204.077C357.107 204.077 375.302 207.383 378.646 211.684V211.684C378.733 211.79 378.972 212.363 379.297 213.21Z" fill="#9A3B82"/>
<path d="M329.662 68.5072V85.4276C329.662 94.6285 322.065 102.077 312.681 102.077C303.297 102.077 295.701 94.6285 295.701 85.4276V68.5072C295.701 72.6382 303.297 75.9764 312.681 75.9764C322.065 75.9764 329.662 72.6382 329.662 68.5072Z" fill="white"/>
<ellipse cx="312.681" cy="68.5072" rx="16.9805" ry="7.74683" fill="#FFCF2D"/>
<path fill-rule="evenodd" clip-rule="evenodd" d="M329.662 38.811V86.1614C329.662 92.5438 326.236 98.1069 321.15 101.082C321.15 101.082 321.15 101.082 321.129 101.082C318.639 102.527 315.745 103.368 312.681 103.368C309.617 103.368 306.744 102.549 304.255 101.104C304.234 101.104 304.234 101.082 304.212 101.082C299.127 98.1069 295.701 92.5438 295.701 86.1614V38.811H329.662Z" stroke="#FFCF2D"/>
<ellipse cx="312.681" cy="38.811" rx="16.9805" ry="7.74683" fill="white" stroke="#FFCF2D"/>
<ellipse cx="312.681" cy="37.5199" rx="2.6124" ry="2.58228" fill="#FFCF2D"/>
<ellipse cx="306.15" cy="89.1655" rx="2.6124" ry="2.58228" fill="white" stroke="#FFCF2D"/>
<ellipse cx="320.519" cy="68.5072" rx="1.3062" ry="1.29114" fill="white"/>
<ellipse cx="302.231" cy="82.7098" rx="1.30618" ry="1.29115" fill="#FFCF2D"/>
<path d="M329.101 188.583H296.262C295.662 188.583 295.491 187.804 296.005 187.531L307.479 183.258C309.277 182.584 310.476 180.879 310.476 178.985V111.71C310.476 107.248 308.121 103.059 304.204 100.807C306.709 102.217 309.599 103.017 312.681 103.017C315.785 103.017 318.675 102.196 321.18 100.786C317.241 103.017 314.886 107.227 314.886 111.689V178.964C314.886 180.858 316.085 182.563 317.883 183.237L329.358 187.51C329.871 187.804 329.7 188.583 329.101 188.583Z" fill="white" stroke="#FFCF2D"/>
<ellipse cx="299.619" cy="10.4059" rx="2.6124" ry="2.58228" fill="#FFCF2D"/>
<ellipse cx="320.519" cy="15.5705" rx="2.61238" ry="2.58228" fill="white" stroke="#FFCF2D"/>
<ellipse cx="307.457" cy="25.8997" rx="1.3062" ry="1.29114" fill="white" stroke="#FFCF2D"/>
<ellipse cx="306.15" cy="3.95026" rx="1.3062" ry="1.29115" fill="#FFCF2D"/>
<path d="M333.58 134.355V178.254H299.568C296.706 178.254 294.395 175.877 294.395 172.933V169.335C294.395 167.721 295.094 166.282 296.197 165.3C295.094 164.319 294.395 162.88 294.395 161.266V157.668C294.395 156.25 294.946 154.942 295.836 154.004C294.946 153.044 294.395 151.758 294.395 150.34V146.742C294.395 145.281 294.967 143.951 295.9 142.969C294.967 142.01 294.395 140.68 294.395 139.218V134.377H333.58V134.355Z" fill="#E57281"/>
<path d="M295.701 161.469C295.701 164.322 298.324 166.634 301.562 166.634H329.026C332.263 166.634 334.887 164.322 334.887 161.469" stroke="#9A3B82" stroke-linecap="round"/>
<path d="M295.701 149.849C295.701 152.702 298.324 155.014 301.562 155.014H329.026C332.263 155.014 334.887 152.702 334.887 149.849" stroke="#9A3B82" stroke-linecap="round"/>
<path d="M295.701 139.52C295.701 142.373 298.324 144.684 301.562 144.684H329.026C332.263 144.684 334.887 142.373 334.887 139.52" stroke="#9A3B82" stroke-linecap="round"/>
<path d="M300.925 176.963H328.962C332.234 176.963 334.886 174.28 334.886 170.969V130.482" stroke="#9A3B82" stroke-linecap="round"/>
<path d="M308.178 131.218H305.281C304.322 131.218 303.538 131.965 303.538 132.878V132.878C303.538 133.79 304.322 134.537 305.281 134.537H321.489C323.232 134.537 324.67 133.189 324.67 131.509V131.509C324.67 129.517 326.369 127.9 328.46 127.9H331.096C333.188 127.9 334.887 129.517 334.887 131.509V138.229" stroke="#9A3B82" stroke-linecap="round"/>
<path d="M253.903 253.14V333.191H159.857V286.028C161.899 291.285 185.84 287.93 211.388 278.314C234.372 269.659 252.122 259.017 253.903 253.14Z" fill="#FE5244"/>
<path d="M253.741 250.806C251.944 256.557 234.278 266.973 211.351 275.443C185.913 284.855 162.056 288.138 159.999 282.993C157.942 277.848 178.509 266.199 203.969 256.788C229.407 247.376 251.706 243.925 253.741 249.07C253.957 249.593 253.957 250.179 253.741 250.806Z" fill="#66B0F0"/>
<path d="M233.004 197.514V265.226V265.226L227.933 267.807C222.798 270.325 217.048 272.821 210.938 275.167C199.714 279.498 188.787 282.549 180.003 284.127L185.052 264.181L193.285 231.626C189.381 231.626 185.689 229.876 183.207 226.847L149.407 188.191C155.2 182.879 163.856 190.111 163.856 190.111L160.61 173.449C159.846 169.503 160.992 165.407 163.687 162.441L173.956 151.113C175.993 148.873 179.663 149.748 180.512 152.649L187.811 177.972C187.811 177.972 205.93 191.882 209.325 191.882C213.165 191.882 214.502 188.746 207.331 178.441C201.941 170.697 207.331 165.044 207.331 165.044L224.877 179.892C230.033 184.287 233.004 190.73 233.004 197.514Z" fill="white" stroke="#FFCF2D"/>
<path d="M193.818 193.748L180.937 183.761L173.889 160.199C173.08 157.496 169.653 156.691 167.694 158.775" stroke="#FFCF2D"/>
<path d="M184.675 197.621L173.633 188.798L167.062 166.512C166.306 163.956 162.989 163.193 161.163 165.172" stroke="#FFCF2D"/>
<path d="M175.531 201.495L162.469 191.165" stroke="#FFCF2D"/>
<path d="M192.512 232.805H208.186" stroke="#FFCF2D"/>
<path d="M234.31 247.976V265.549C227.771 268.858 219.98 272.21 211.488 275.33C199.858 279.582 188.556 282.578 179.45 284.128L184.716 264.523C190.553 261.842 197.093 259.16 204.005 256.647C215.175 252.584 225.752 249.609 234.31 247.976Z" fill="#FFCF2D"/>
<path d="M219.402 22.0262L226.401 36.4005C227.068 41.7236 223.016 46.5294 217.329 47.1759V47.1759C211.643 47.8009 207.59 52.6282 208.258 57.9512L209.271 65.925" stroke="#FFCF2D"/>
<path d="M294.029 -22.7155L328.356 -76.4458L210.289 -77.3915L171.612 25.8997L235.467 22.8908L294.029 -22.7155Z" fill="#FE5244"/>
<path d="M329.662 -81.1584L206.109 -82.556L165.082 25.8997" stroke="#FFCF2D"/>
<path d="M292.427 -31.4198C299.292 -19.6364 287.621 -0.0187323 266.339 12.3872C245.056 24.7931 222.251 25.2867 215.385 13.5033C214.441 11.8935 213.862 10.155 213.583 8.28764C211.867 -3.49582 223.087 -19.5934 241.473 -30.3037C259.86 -41.014 279.383 -42.8598 288.78 -35.5623C290.26 -34.4032 291.483 -33.0296 292.427 -31.4198Z" fill="#66B0F0" stroke="white"/>
<path fill-rule="evenodd" clip-rule="evenodd" d="M286.389 -40.5826L291.783 -31.347C290.848 -32.9357 289.638 -34.2913 288.173 -35.4352C278.872 -42.6373 259.548 -40.8156 241.349 -30.2455C223.151 -19.6753 212.066 -3.78835 213.744 7.84091C213.999 9.6838 214.593 11.3996 215.528 12.9883L210.134 3.75266C203.339 -7.8766 214.89 -27.2375 235.956 -39.4811C257 -51.7035 279.594 -52.2119 286.389 -40.5826Z" stroke="white" stroke-linecap="round"/>
<path d="M208.184 95.1712C207.299 97.6072 206.346 99.9374 205.347 102.077C203.327 102.056 201.285 101.738 199.287 101.102C197.268 100.467 195.452 99.5773 193.818 98.4546C194.408 96.188 195.134 93.7943 196.019 91.3582C200.422 79.1568 206.686 70.1328 210.045 71.1708C213.404 72.23 212.564 82.9698 208.184 95.1712Z" fill="#FFCF2D"/>
<ellipse cx="209.492" cy="68.5073" rx="2.61239" ry="2.58228" stroke="#66B0F0"/>
<path d="M97.1594 245.464V333.191H0.500977V204.077C2.39287 210.4 22.6232 223.581 47.7337 234.598C74.4567 246.365 96.6004 251.209 97.1594 245.464Z" fill="#66B0F0"/>
<path d="M97.1478 243.025C96.5682 248.664 74.4818 243.888 47.8022 232.358C22.7323 221.522 2.53469 208.582 0.645858 202.396C0.517075 201.996 0.474147 201.617 0.517075 201.28C1.07514 195.641 23.183 200.418 49.8627 211.948C76.5424 223.478 97.7273 237.386 97.1478 243.025Z" fill="#9A3B82"/>
<path d="M39.4639 118.807C41.7475 114.106 46.5066 111.115 51.7353 111.115H66.8237L67.6133 171.844L78.1346 227.658L81.4853 245.393C72.6072 243.427 60.4853 239.303 47.2109 233.448C39.6987 230.136 30.2871 225.222 24.0127 221.76V147.868C24.0127 146.864 24.2048 145.86 24.5462 144.92L39.4639 118.807Z" fill="#A0505A"/>
<path d="M81.4853 244.102V244.102C72.6072 242.178 60.4853 238.14 47.2109 232.408C39.6987 229.166 30.2871 224.354 24.0127 220.965V202.786C30.8633 204.94 41.0005 208.539 49.2596 212.095C60.3999 216.907 70.1316 221.865 78.156 226.739L81.4853 244.102Z" fill="#73325A"/>
<path d="M140.264 42.5692L58.0222 191.173C54.9827 196.671 46.6076 197.981 39.3259 194.094C32.0442 190.207 28.6111 182.605 31.6506 177.086L113.892 28.4819L140.264 42.5692Z" fill="white" stroke="#FFCF2D"/>
<ellipse cx="125.895" cy="36.2288" rx="14.3681" ry="11.6203" fill="#66B0F0" stroke="#FFCF2D"/>
<path d="M86.71 98.8987L125.121 68.5073L124.515 79.315L136.815 82.2892L108.801 99.0453C116.323 97.7886 125.38 96.7623 132.837 97.3278C141.721 97.998 138.739 108.073 135.41 116.681C143.191 115.948 169.281 100.637 179.116 103.528C185.125 105.287 182.964 117.163 181.235 123.719C183.742 123.844 196.43 123.698 196.43 123.698L189.73 129.625L193.404 135.553C179.138 136.16 178.965 133.982 180.759 124.179C181.062 113.518 168.871 123.761 142.91 129.772C130.049 132.746 131.713 124.64 134.891 116.199C133.616 112.325 124.083 108.115 93.454 115.864L86.71 98.8987Z" fill="#FE5244"/>
<ellipse cx="86.7099" cy="107.241" rx="11.7558" ry="11.6203" fill="white" stroke="#FE5244"/>
<path d="M82.7914 111.115V111.779C82.7914 118.536 77.0977 124.026 70.0434 124.026H56.6675V111.115H82.7914Z" fill="#A0505A"/>
<path d="M99.4306 136.556L95.8251 144.908L91.6222 154.673L89.3394 159.967L85.8618 168.044C85.7765 168.255 85.6485 168.487 85.5418 168.677C85.5418 168.698 85.5205 168.698 85.5205 168.719C84.4111 170.617 82.2563 171.798 79.8881 171.798H52.2598C48.9103 171.798 46.6275 168.656 47.8649 165.766L49.8703 161.105L54.2866 150.855L58.0841 142.019L61.4337 134.257C62.4151 131.979 64.7832 130.482 67.4287 130.482H95.057C98.3852 130.524 100.668 133.667 99.4306 136.556Z" fill="#A0505A"/>
<path d="M57.9736 142.957C59.1597 141.616 60.8728 140.811 62.7177 140.811H89.8864C92.7417 140.811 94.8062 143.315 94.5207 145.976" stroke="#73325A" stroke-linecap="round"/>
<path d="M55.3608 151.505C56.5331 150.46 58.1478 149.849 59.8952 149.849H87.2564C90.3973 149.849 92.565 152.451 91.7687 155.014" stroke="#73325A" stroke-linecap="round"/>
<path d="M50.1362 161.656C51.312 160.721 52.887 160.178 54.573 160.178H82.0146C85.2534 160.178 87.494 162.835 86.4513 165.343V165.343" stroke="#73325A" stroke-linecap="round"/>
</svg>
