<svg width="1261" height="293" viewBox="0 0 1261 293" fill="none" xmlns="http://www.w3.org/2000/svg">
<rect x="0.5" width="1260" height="293" rx="31" fill="#F69044"/>
<mask id="mask0_1_2257" style="mask-type:alpha" maskUnits="userSpaceOnUse" x="0" y="0" width="1261" height="293">
<rect x="0.5" width="1260" height="293" rx="31" fill="white"/>
</mask>
<g mask="url(#mask0_1_2257)">
<path d="M950.927 262.564V333.191H843.819L864.688 224.735C864.019 229.017 877.378 237.045 895.658 245.095C902.218 247.985 909.534 250.854 917.347 253.572C929.95 257.983 941.561 260.98 950.927 262.564C950.906 262.564 950.927 262.564 950.927 262.564Z" fill="#9A3B82"/>
<path d="M952.233 241.72V260.887C942.745 259.281 931.006 256.263 918.195 251.792C888.004 241.264 864.766 228.261 866.077 222.422C866.099 222.335 866.121 222.248 866.143 222.183C868.176 216.474 894.913 220.425 925.519 231.083C935.356 234.513 944.232 238.051 951.687 241.459C951.862 241.546 952.037 241.633 952.233 241.72Z" fill="#FFCF2D"/>
<path d="M937.866 78.8364C927.287 78.8364 918.719 87.1335 918.719 97.3568V148.113C918.719 158.337 910.151 166.634 899.594 166.634H822.92C833.499 166.634 842.045 158.337 842.045 148.113V97.3568C842.045 87.1124 850.613 78.8364 861.17 78.8364H937.866V78.8364Z" fill="white" stroke="#FFCF2D"/>
<rect x="855.575" y="105.95" width="47.023" height="43.8987" fill="white" stroke="#FFCF2D"/>
<path d="M902.598 112.729H855.575" stroke="#FFCF2D"/>
<path d="M902.598 117.893H855.575" stroke="#FFCF2D"/>
<path d="M902.598 124.349H855.575" stroke="#FFCF2D"/>
<path d="M902.598 130.805H855.575" stroke="#FFCF2D"/>
<path d="M902.598 137.26H855.575" stroke="#FFCF2D"/>
<path d="M902.598 143.716H855.575" stroke="#FFCF2D"/>
<path d="M918.272 96.9123C918.272 86.9757 926.456 78.919 936.559 78.8364C946.683 78.919 954.846 86.9757 954.846 96.9123H918.272Z" fill="#66B0F0" stroke="#FFCF2D"/>
<path d="M899.986 166.634C899.964 166.634 899.92 166.634 899.898 166.634H823.477C823.433 166.634 823.389 166.634 823.345 166.634C815.495 166.538 808.783 162.3 805.94 156.305H882.515C885.379 162.3 892.092 166.538 899.986 166.634Z" fill="#FFCF2D"/>
<path d="M858.188 100.786H850.351V93.0389H854.036V97.3427C854.036 97.4383 854.075 97.5101 854.114 97.534L854.133 97.5579L858.188 100.786Z" fill="#FE5244"/>
<path d="M862.106 95.6455V96.693C862.106 96.8879 862.084 97.0828 862.084 97.2777C862.084 97.3264 862.061 97.3995 862.061 97.4482C862.039 97.5457 862.039 97.6431 862.016 97.7406C861.769 99.0804 861.028 100.177 860.108 100.591C860.04 100.615 859.973 100.64 859.906 100.664C859.793 100.713 859.658 100.737 859.546 100.761C859.501 100.761 859.456 100.786 859.411 100.786L854.269 97.1559C854.314 96.3033 854.808 95.6212 855.392 95.6212H862.106V95.6455Z" fill="#FE5244"/>
<path d="M909.129 93.0389V100.786H901.292L905.327 97.5579L905.346 97.534V97.534C905.366 97.5101 905.366 97.5101 905.385 97.5101C905.385 97.4861 905.405 97.4861 905.405 97.4622C905.405 97.4622 905.405 97.4383 905.424 97.4383C905.424 97.4144 905.424 97.4144 905.443 97.4144V97.4144C905.443 97.4144 905.443 97.4144 905.443 97.3905C905.443 97.3666 905.443 97.3666 905.443 97.3427V93.0389H909.129V93.0389Z" fill="#FE5244"/>
<path d="M905.211 97.1392L900.068 100.786C899.934 100.761 899.799 100.737 899.664 100.712C899.619 100.688 899.574 100.688 899.529 100.663C899.462 100.639 899.417 100.614 899.35 100.59C899.305 100.565 899.237 100.541 899.192 100.517C898.496 100.1 897.912 99.2928 897.621 98.2894C897.576 98.1426 897.531 97.9957 897.508 97.8489C897.486 97.7999 897.486 97.7265 897.463 97.6531C897.418 97.3349 897.374 97.0168 897.374 96.6742V95.6218H904.11C904.672 95.5973 905.166 96.2826 905.211 97.1392Z" fill="#FE5244"/>
<path d="M906.517 89.3794V95.6212C906.473 95.5769 906.429 95.5105 906.385 95.4662C906.296 95.3777 906.208 95.3113 906.12 95.2449C905.9 95.1121 905.657 95.0235 905.415 95.0235H855.371C855.106 95.0235 854.864 95.1121 854.666 95.2449C854.578 95.3113 854.489 95.3777 854.401 95.4662C854.357 95.5105 854.313 95.5548 854.269 95.6212V89.3794C854.269 88.5383 854.754 87.8743 855.371 87.8743H905.415C906.01 87.8743 906.517 88.5605 906.517 89.3794Z" fill="#FE5244"/>
<path d="M952.234 176.909V260.887H952.212C942.803 259.302 931.161 256.324 918.457 251.911C910.609 249.19 903.259 246.298 896.669 243.427L900.203 223.933L906.208 190.834C887.368 185.007 884.312 167.098 884.312 167.098H899.466C909.958 167.098 918.435 158.7 918.435 148.353V142.183H908.701C901.872 142.183 896.322 135.542 896.322 128.794V126.609H917.958C921.969 126.609 925.741 128.472 928.148 131.643L943.974 152.53C949.35 159.557 952.234 168.105 952.234 176.909Z" fill="#A0505A"/>
<path d="M950.928 242.381V260.887H950.906C941.617 259.336 930.122 256.423 917.579 252.106C909.831 249.444 902.574 246.615 896.067 243.807L899.556 224.735C907.262 226.579 915.824 229.073 924.728 232.133C934.36 235.444 943.051 238.861 950.328 242.151C950.564 242.214 950.735 242.298 950.928 242.381Z" fill="#73325A"/>
<path d="M919.579 142.102H908.817C901.783 142.102 896.067 135.496 896.067 128.782V126.609H919.579V142.102Z" fill="#A0505A"/>
<path d="M913.048 162.76C913.048 162.76 927.419 168.581 928.722 188.583" stroke="#73325A"/>
<path d="M905.21 191.488H915.66" stroke="#73325A"/>
<path d="M795.49 -116.126L884.101 -66.1964L928.722 31.0642L877.531 -2.41204L821.902 -65.6895L795.49 -116.126Z" fill="#9A3B82"/>
<path d="M796.796 -119.999L887.135 -68.3009L932.641 32.3553" stroke="#FFCF2D"/>
<ellipse cx="849.044" cy="-32.2016" rx="28.7363" ry="33.5696" fill="white"/>
<ellipse cx="846.432" cy="-30.9105" rx="28.7363" ry="32.2785" fill="white" stroke="#FFCF2D"/>
<path d="M884.587 -6.80437L876.241 0.0768757C877.79 -1.20678 877.445 -4.44749 875.574 -8.97186C872.497 -16.4213 865.291 -27.3008 855.696 -38.4539C846.08 -49.586 836.313 -58.3611 829.322 -62.5698C825.084 -65.1372 821.857 -66.021 820.308 -64.7373L828.655 -71.6186C832.742 -75.0066 849.307 -63.9377 864.753 -46.0296C880.199 -28.1215 888.696 -10.1713 884.587 -6.80437Z" fill="#FFCF2D"/>
<path d="M800.715 242.832V333.191H696.219L709.609 235.064C709.609 239.034 729.997 243.985 755.151 246.119C780.305 248.274 800.715 246.802 800.715 242.832Z" fill="#66B0F0"/>
<path d="M799.409 240.041C799.409 243.808 779.517 245.206 754.998 243.16C730.479 241.115 710.587 236.416 710.587 232.669V232.669C710.587 228.902 730.479 227.505 754.998 229.55C779.538 231.576 799.409 236.274 799.409 240.041Z" fill="#3FB1B5"/>
<path d="M813.461 40.1022L819.613 44.0829C825.765 48.843 817.254 70.1158 800.61 91.5571C783.966 113.019 765.49 126.541 759.338 121.781L756.304 118.917" stroke="#66B0F0"/>
<path d="M726.262 140.811L797.881 76.3481L822.92 1.36798L746.484 69.6766L726.262 140.811Z" fill="#66B0F0"/>
<path d="M723.649 148.558L800.472 77.9871L825.533 1.36798" stroke="#FE5244" stroke-linecap="round"/>
<path d="M764.141 76.2541L697.295 139.538C694.046 142.606 688.738 139.706 689.651 135.334L691.519 126.36C692.369 122.303 687.718 119.34 684.342 121.778L662.258 137.688" stroke="#FE5244"/>
<path d="M643.326 161.935C641.271 163.656 639.216 165.244 637.227 166.634C635.57 165.597 634.045 164.296 632.697 162.707C631.371 161.119 630.333 159.399 629.604 157.59C631.327 155.869 633.227 154.127 635.282 152.384C645.557 143.76 655.678 138.885 657.91 141.532C660.119 144.179 653.601 153.311 643.326 161.935Z" fill="#FFCF2D"/>
<ellipse cx="659.646" cy="139.52" rx="2.6124" ry="2.58228" stroke="#FE5244"/>
<path d="M766.754 174.22V244.102C762.847 243.931 758.687 243.675 754.4 243.29C738.583 241.901 724.73 239.294 716.98 236.558L718.142 228.822L722.027 202.857H717.002C709.843 202.857 704.057 197.001 704.057 189.757V164.026C704.057 158.94 705.873 154.046 709.188 150.221L725.723 131.094C726.8 129.855 728.827 130.624 728.827 132.269V158.278C728.827 161.398 727.729 164.411 725.723 166.783L724.245 168.535H742.195C744.792 168.535 746.312 165.608 744.855 163.428C742.638 160.158 739.724 155.499 736.957 150.114C731.446 139.45 741.012 133.488 741.012 133.488L762.911 162.231C765.402 165.715 766.754 169.925 766.754 174.22Z" fill="#FFCF2D"/>
<path d="M728.874 130.482V158.664C728.874 161.874 727.622 164.973 725.335 167.413L723.649 169.216" stroke="white" stroke-linecap="round"/>
<path d="M724.956 169.216L711.894 182.128" stroke="white" stroke-linecap="round"/>
<path d="M728.875 147.267C728.875 150.324 727.827 153.276 725.913 155.6L724.503 157.317L713.2 170.507" stroke="white" stroke-linecap="round"/>
<path d="M728.875 134.355C728.875 137.412 727.827 140.364 725.913 142.688L724.503 144.405L713.2 157.596" stroke="white" stroke-linecap="round"/>
<path d="M721.038 204.4H731.487" stroke="white" stroke-linecap="round"/>
<path d="M766.754 230.878V244.102C762.858 243.938 758.71 243.693 754.435 243.324C738.662 241.994 724.847 239.496 717.119 236.876L718.277 229.466C726.195 228.34 739.441 228.278 754.456 229.548C758.71 229.937 762.837 230.366 766.754 230.878Z" fill="#FE5244"/>
<path d="M660.952 333.191H540.782V214.427C540.782 219.497 560.541 223.599 584.933 223.599C609.325 223.599 629.084 219.497 629.084 214.427V214.406L660.952 333.191Z" fill="#3FB1B5"/>
<path d="M629.603 213.094V213.094C629.603 218.11 609.732 222.153 585.193 222.153C560.654 222.153 540.782 218.11 540.782 213.115V213.094C540.848 208.12 560.698 204.077 585.193 204.077C609.688 204.077 629.56 208.12 629.603 213.094Z" fill="#66B0F0"/>
<path d="M629.603 213.123C629.45 218.107 609.669 222.153 585.297 222.153C580.597 222.153 576.094 222.004 571.854 221.727V177.921H548.728C545.777 177.921 543.395 175.599 543.395 172.724V169.211C543.395 167.635 544.116 166.229 545.252 165.271C544.116 164.313 543.395 162.907 543.395 161.331V157.817C543.395 156.433 543.963 155.155 544.881 154.239C543.963 153.302 543.395 152.046 543.395 150.662V147.148C543.395 145.721 543.985 144.422 544.946 143.464C543.985 142.527 543.395 141.228 543.395 139.801V133.433C543.395 130.558 545.777 128.237 548.728 128.237H578.258C579.242 127.683 580.838 125.724 578.127 124.574L571.788 123.126C566.761 120.677 563.57 116.609 563.57 111.115H585.865C589.603 111.115 592.947 113.415 594.215 116.843L629.057 211.611L629.603 213.123Z" fill="#E57281"/>
<path d="M628.297 213.21C628.232 213.147 628.189 213.104 628.189 213.104C628.189 218.105 608.496 222.153 584.178 222.153C579.51 222.153 575.037 222.004 570.825 221.729V204.501C575.037 204.225 579.531 204.077 584.178 204.077C606.107 204.077 624.302 207.383 627.646 211.684V211.684C627.733 211.79 627.972 212.363 628.297 213.21Z" fill="#9A3B82"/>
<path d="M578.662 68.5072V85.4276C578.662 94.6285 571.065 102.077 561.681 102.077C552.297 102.077 544.701 94.6285 544.701 85.4276V68.5072C544.701 72.6382 552.297 75.9764 561.681 75.9764C571.065 75.9764 578.662 72.6382 578.662 68.5072Z" fill="white"/>
<ellipse cx="561.681" cy="68.5072" rx="16.9805" ry="7.74683" fill="#FFCF2D"/>
<path fill-rule="evenodd" clip-rule="evenodd" d="M578.662 38.811V86.1614C578.662 92.5438 575.236 98.1069 570.15 101.082C570.15 101.082 570.15 101.082 570.129 101.082C567.639 102.527 564.745 103.368 561.681 103.368C558.617 103.368 555.744 102.549 553.255 101.104C553.234 101.104 553.234 101.082 553.212 101.082C548.127 98.1069 544.701 92.5438 544.701 86.1614V38.811H578.662Z" stroke="#FFCF2D"/>
<ellipse cx="561.681" cy="38.811" rx="16.9805" ry="7.74683" fill="white" stroke="#FFCF2D"/>
<ellipse cx="561.681" cy="37.5199" rx="2.6124" ry="2.58228" fill="#FFCF2D"/>
<ellipse cx="555.151" cy="89.1655" rx="2.6124" ry="2.58228" fill="white" stroke="#FFCF2D"/>
<ellipse cx="569.519" cy="68.5072" rx="1.3062" ry="1.29114" fill="white"/>
<ellipse cx="551.231" cy="82.7098" rx="1.30618" ry="1.29115" fill="#FFCF2D"/>
<path d="M578.101 188.583H545.262C544.662 188.583 544.491 187.804 545.005 187.531L556.479 183.258C558.277 182.584 559.476 180.879 559.476 178.985V111.71C559.476 107.248 557.121 103.059 553.204 100.807C555.709 102.217 558.599 103.017 561.681 103.017C564.785 103.017 567.675 102.196 570.18 100.786C566.241 103.017 563.886 107.227 563.886 111.689V178.964C563.886 180.858 565.085 182.563 566.883 183.237L578.358 187.51C578.871 187.804 578.7 188.583 578.101 188.583Z" fill="white" stroke="#FFCF2D"/>
<ellipse cx="548.619" cy="10.4059" rx="2.6124" ry="2.58228" fill="#FFCF2D"/>
<ellipse cx="569.519" cy="15.5705" rx="2.61238" ry="2.58228" fill="white" stroke="#FFCF2D"/>
<ellipse cx="556.457" cy="25.8997" rx="1.3062" ry="1.29114" fill="white" stroke="#FFCF2D"/>
<ellipse cx="555.15" cy="3.95026" rx="1.3062" ry="1.29115" fill="#FFCF2D"/>
<path d="M582.58 134.355V178.254H548.568C545.706 178.254 543.395 175.877 543.395 172.933V169.335C543.395 167.721 544.094 166.282 545.197 165.3C544.094 164.319 543.395 162.88 543.395 161.266V157.668C543.395 156.25 543.946 154.942 544.836 154.004C543.946 153.044 543.395 151.758 543.395 150.34V146.742C543.395 145.281 543.967 143.951 544.9 142.969C543.967 142.01 543.395 140.68 543.395 139.218V134.377H582.58V134.355Z" fill="#E57281"/>
<path d="M544.701 161.469C544.701 164.322 547.324 166.634 550.562 166.634H578.026C581.263 166.634 583.887 164.322 583.887 161.469" stroke="#9A3B82" stroke-linecap="round"/>
<path d="M544.701 149.849C544.701 152.702 547.324 155.014 550.562 155.014H578.026C581.263 155.014 583.887 152.702 583.887 149.849" stroke="#9A3B82" stroke-linecap="round"/>
<path d="M544.701 139.52C544.701 142.373 547.324 144.684 550.562 144.684H578.026C581.263 144.684 583.887 142.373 583.887 139.52" stroke="#9A3B82" stroke-linecap="round"/>
<path d="M549.925 176.963H577.962C581.234 176.963 583.886 174.28 583.886 170.969V130.482" stroke="#9A3B82" stroke-linecap="round"/>
<path d="M557.178 131.218H554.281C553.322 131.218 552.538 131.965 552.538 132.878V132.878C552.538 133.79 553.322 134.537 554.281 134.537H570.489C572.232 134.537 573.67 133.189 573.67 131.509V131.509C573.67 129.517 575.369 127.9 577.46 127.9H580.096C582.188 127.9 583.887 129.517 583.887 131.509V138.229" stroke="#9A3B82" stroke-linecap="round"/>
<path d="M502.903 253.14V333.191H408.857V286.028C410.899 291.285 434.84 287.93 460.388 278.314C483.372 269.659 501.122 259.017 502.903 253.14Z" fill="#FE5244"/>
<path d="M502.741 250.806C500.944 256.557 483.278 266.973 460.351 275.443C434.913 284.855 411.056 288.138 408.999 282.993C406.942 277.848 427.509 266.199 452.969 256.788C478.407 247.376 500.706 243.925 502.741 249.07C502.957 249.593 502.957 250.179 502.741 250.806Z" fill="#66B0F0"/>
<path d="M482.004 197.514V265.226V265.226L476.933 267.807C471.798 270.325 466.048 272.821 459.938 275.167C448.714 279.498 437.787 282.549 429.003 284.127L434.052 264.181L442.285 231.626C438.381 231.626 434.689 229.876 432.207 226.847L398.407 188.191C404.2 182.879 412.856 190.111 412.856 190.111L409.61 173.449C408.846 169.503 409.992 165.407 412.687 162.441L422.956 151.113C424.993 148.873 428.663 149.748 429.512 152.649L436.811 177.972C436.811 177.972 454.93 191.882 458.325 191.882C462.165 191.882 463.502 188.746 456.331 178.441C450.941 170.697 456.331 165.044 456.331 165.044L473.877 179.892C479.033 184.287 482.004 190.73 482.004 197.514Z" fill="white" stroke="#FFCF2D"/>
<path d="M442.818 193.748L429.937 183.761L422.889 160.199C422.08 157.496 418.653 156.691 416.694 158.775" stroke="#FFCF2D"/>
<path d="M433.675 197.621L422.633 188.798L416.062 166.512C415.306 163.956 411.989 163.193 410.163 165.172" stroke="#FFCF2D"/>
<path d="M424.531 201.495L411.469 191.165" stroke="#FFCF2D"/>
<path d="M441.512 232.805H457.186" stroke="#FFCF2D"/>
<path d="M483.31 247.976V265.549C476.771 268.858 468.98 272.21 460.488 275.33C448.858 279.582 437.556 282.578 428.45 284.128L433.716 264.523C439.553 261.842 446.093 259.16 453.005 256.647C464.175 252.584 474.752 249.609 483.31 247.976Z" fill="#FFCF2D"/>
<path d="M468.402 22.0262L475.401 36.4005C476.068 41.7236 472.016 46.5294 466.329 47.1759V47.1759C460.643 47.8009 456.59 52.6282 457.258 57.9512L458.271 65.925" stroke="#FFCF2D"/>
<path d="M543.029 -22.7155L577.356 -76.4458L459.289 -77.3915L420.612 25.8997L484.467 22.8908L543.029 -22.7155Z" fill="#FE5244"/>
<path d="M578.662 -81.1584L455.109 -82.556L414.082 25.8997" stroke="#FFCF2D"/>
<path d="M541.427 -31.4198C548.292 -19.6364 536.621 -0.0187323 515.339 12.3872C494.056 24.7931 471.251 25.2867 464.385 13.5033C463.441 11.8935 462.862 10.155 462.583 8.28764C460.867 -3.49582 472.087 -19.5934 490.473 -30.3037C508.86 -41.014 528.383 -42.8598 537.78 -35.5623C539.26 -34.4032 540.483 -33.0296 541.427 -31.4198Z" fill="#66B0F0" stroke="white"/>
<path fill-rule="evenodd" clip-rule="evenodd" d="M535.389 -40.5826L540.783 -31.347C539.848 -32.9357 538.638 -34.2913 537.173 -35.4352C527.872 -42.6373 508.548 -40.8156 490.349 -30.2455C472.151 -19.6753 461.066 -3.78835 462.744 7.84091C462.999 9.6838 463.593 11.3996 464.528 12.9883L459.134 3.75266C452.339 -7.8766 463.89 -27.2375 484.956 -39.4811C506 -51.7035 528.594 -52.2119 535.389 -40.5826Z" stroke="white" stroke-linecap="round"/>
<path d="M457.184 95.1712C456.299 97.6072 455.346 99.9374 454.347 102.077C452.327 102.056 450.285 101.738 448.287 101.102C446.268 100.467 444.452 99.5773 442.818 98.4546C443.408 96.188 444.134 93.7943 445.019 91.3582C449.422 79.1568 455.686 70.1328 459.045 71.1708C462.404 72.23 461.564 82.9698 457.184 95.1712Z" fill="#FFCF2D"/>
<ellipse cx="458.492" cy="68.5073" rx="2.61239" ry="2.58228" stroke="#66B0F0"/>
<path d="M346.159 245.464V333.191H249.501V204.077C251.393 210.4 271.623 223.581 296.734 234.598C323.457 246.365 345.6 251.209 346.159 245.464Z" fill="#66B0F0"/>
<path d="M346.148 243.025C345.568 248.664 323.482 243.888 296.802 232.358C271.732 221.522 251.535 208.582 249.646 202.396C249.517 201.996 249.474 201.617 249.517 201.28C250.075 195.641 272.183 200.418 298.863 211.948C325.542 223.478 346.727 237.386 346.148 243.025Z" fill="#9A3B82"/>
<path d="M288.464 118.807C290.747 114.106 295.507 111.115 300.735 111.115H315.824L316.613 171.844L327.135 227.658L330.485 245.393C321.607 243.427 309.485 239.303 296.211 233.448C288.699 230.136 279.287 225.222 273.013 221.76V147.868C273.013 146.864 273.205 145.86 273.546 144.92L288.464 118.807Z" fill="#A0505A"/>
<path d="M330.485 244.102V244.102C321.607 242.178 309.485 238.14 296.211 232.408C288.699 229.166 279.287 224.354 273.013 220.965V202.786C279.863 204.94 290.001 208.539 298.26 212.095C309.4 216.907 319.132 221.865 327.156 226.739L330.485 244.102Z" fill="#73325A"/>
<path d="M389.264 42.5692L307.022 191.173C303.983 196.671 295.608 197.981 288.326 194.094C281.044 190.207 277.611 182.605 280.651 177.086L362.892 28.4819L389.264 42.5692Z" fill="white" stroke="#FFCF2D"/>
<ellipse cx="374.895" cy="36.2288" rx="14.3681" ry="11.6203" fill="#66B0F0" stroke="#FFCF2D"/>
<path d="M335.71 98.8987L374.121 68.5073L373.515 79.315L385.815 82.2892L357.801 99.0453C365.323 97.7886 374.38 96.7623 381.837 97.3278C390.721 97.998 387.739 108.073 384.41 116.681C392.191 115.948 418.281 100.637 428.116 103.528C434.125 105.287 431.964 117.163 430.235 123.719C432.742 123.844 445.43 123.698 445.43 123.698L438.73 129.625L442.404 135.553C428.138 136.16 427.965 133.982 429.759 124.179C430.062 113.518 417.871 123.761 391.91 129.772C379.049 132.746 380.713 124.64 383.891 116.199C382.616 112.325 373.083 108.115 342.454 115.864L335.71 98.8987Z" fill="#FE5244"/>
<ellipse cx="335.71" cy="107.241" rx="11.7558" ry="11.6203" fill="white" stroke="#FE5244"/>
<path d="M331.791 111.115V111.779C331.791 118.536 326.098 124.026 319.043 124.026H305.667V111.115H331.791Z" fill="#A0505A"/>
<path d="M348.431 136.556L344.825 144.908L340.622 154.673L338.339 159.967L334.862 168.044C334.776 168.255 334.648 168.487 334.542 168.677C334.542 168.698 334.52 168.698 334.52 168.719C333.411 170.617 331.256 171.798 328.888 171.798H301.26C297.91 171.798 295.627 168.656 296.865 165.766L298.87 161.105L303.287 150.855L307.084 142.019L310.434 134.257C311.415 131.979 313.783 130.482 316.429 130.482H344.057C347.385 130.524 349.668 133.667 348.431 136.556Z" fill="#A0505A"/>
<path d="M306.974 142.957C308.16 141.616 309.873 140.811 311.718 140.811H338.886C341.742 140.811 343.806 143.315 343.521 145.976" stroke="#73325A" stroke-linecap="round"/>
<path d="M304.361 151.505C305.533 150.46 307.148 149.849 308.895 149.849H336.256C339.397 149.849 341.565 152.451 340.769 155.014" stroke="#73325A" stroke-linecap="round"/>
<path d="M299.136 161.656C300.312 160.721 301.887 160.178 303.573 160.178H331.015C334.253 160.178 336.494 162.835 335.451 165.343V165.343" stroke="#73325A" stroke-linecap="round"/>
</g>
</svg>
