<?xml version="1.0" encoding="UTF-8"?>
<svg width="21px" height="14px" viewBox="0 0 21 14" version="1.1" xmlns="http://www.w3.org/2000/svg" xmlns:xlink="http://www.w3.org/1999/xlink">
    <title>icon / keyboard</title>
    <g id="career-paths" stroke="none" stroke-width="1" fill="none" fill-rule="evenodd" opacity="0.791401708" stroke-linecap="round" stroke-linejoin="round">
        <g id="tests---index" transform="translate(-553.000000, -1354.000000)" stroke="#242424">
            <g id="test" transform="translate(1.000000, 626.000000)">
                <g id="test-module" transform="translate(90.000000, 121.500000)">
                    <g id="questions" transform="translate(240.000000, 240.500000)">
                        <g id="instructions" transform="translate(222.500000, 363.000000)">
                            <g id="Path" transform="translate(0.000000, 4.000000)">
                                <path d="M19,12 L1,12 C0.45,12 0,11.55 0,11 L0,1 C0,0.45 0.45,0 1,0 L19,0 C19.55,0 20,0.45 20,1 L20,11 C20,11.55 19.55,12 19,12 Z"></path>
                                <line x1="6.5" y1="9" x2="13.5" y2="9"></line>
                                <line x1="17" y1="9" x2="17.01" y2="9"></line>
                                <line x1="17" y1="3" x2="17.01" y2="3"></line>
                                <line x1="13.5" y1="3" x2="13.51" y2="3"></line>
                                <line x1="10" y1="3" x2="10.01" y2="3"></line>
                                <line x1="6.5" y1="3" x2="6.51" y2="3"></line>
                                <line x1="2.98999" y1="3" x2="3.00999" y2="3"></line>
                                <line x1="17" y1="6" x2="17.01" y2="6"></line>
                                <line x1="13.5" y1="6" x2="13.51" y2="6"></line>
                                <line x1="10" y1="6" x2="10.01" y2="6"></line>
                                <line x1="6.5" y1="6" x2="6.51" y2="6"></line>
                                <line x1="2.98999" y1="6" x2="3.00999" y2="6"></line>
                                <line x1="2.98999" y1="9" x2="3.00999" y2="9"></line>
                            </g>
                        </g>
                    </g>
                </g>
            </g>
        </g>
    </g>
</svg>