<svg width="21" height="26" viewBox="0 0 21 26" fill="none" xmlns="http://www.w3.org/2000/svg">
<path d="M20.2034 13.6392H17.8789" stroke="#242424" stroke-linejoin="round"/>
<path d="M16.7168 13.6392H14.3923" stroke="#242424" stroke-linejoin="round"/>
<path d="M13.23 13.6392H10.9055" stroke="#242424" stroke-linejoin="round"/>
<path d="M9.7434 13.6392H7.41895" stroke="#242424" stroke-linejoin="round"/>
<path d="M6.25658 13.6392H3.93213" stroke="#242424" stroke-linejoin="round"/>
<path d="M6.25657 12.477L-0.716797 8.99036" stroke="#242424" stroke-linecap="round" stroke-linejoin="round"/>
<path d="M18.6343 6.28235L6.25657 12.477L-0.716797 15.9637" stroke="#242424" stroke-linecap="round" stroke-linejoin="round"/>
<path fill-rule="evenodd" clip-rule="evenodd" d="M-0.716686 22.937C1.20895 22.937 2.77 21.3761 2.77 19.4504C2.77 17.5247 1.20895 15.9637 -0.716686 15.9637C-2.64232 15.9637 -4.20337 17.5247 -4.20337 19.4504C-4.20337 21.3761 -2.64232 22.937 -0.716686 22.937Z" stroke="#242424" stroke-linecap="round" stroke-linejoin="round"/>
<path fill-rule="evenodd" clip-rule="evenodd" d="M-0.716686 8.99033C1.20895 8.99033 2.77 7.42929 2.77 5.50365C2.77 3.57801 1.20895 2.01697 -0.716686 2.01697C-2.64232 2.01697 -4.20337 3.57801 -4.20337 5.50365C-4.20337 7.42929 -2.64232 8.99033 -0.716686 8.99033Z" stroke="#242424" stroke-linecap="round" stroke-linejoin="round"/>
<path fill-rule="evenodd" clip-rule="evenodd" d="M6.25685 12.477C6.11738 12.1865 6.23361 11.8378 6.51254 11.6983L17.4723 6.21261C18.0418 5.92206 18.7392 6.1545 19.0297 6.73562L7.02392 12.7443C6.74499 12.8838 6.39632 12.7676 6.25685 12.477Z" stroke="#242424" stroke-linecap="round"/>
</svg>
