<svg width="21" height="26" viewBox="0 0 21 26" fill="none" xmlns="http://www.w3.org/2000/svg">
<path fill-rule="evenodd" clip-rule="evenodd" d="M16.1179 5.25665L14.4612 6.91342L15.3154 7.7677L16.9723 6.11093L16.1179 5.25665Z" stroke="#242424" stroke-linecap="round" stroke-linejoin="round"/>
<path fill-rule="evenodd" clip-rule="evenodd" d="M-0.109593 5.24799L-0.963867 6.10226L0.692914 7.75903L1.54718 6.90475L-0.109593 5.24799Z" stroke="#242424" stroke-linecap="round" stroke-linejoin="round"/>
<path fill-rule="evenodd" clip-rule="evenodd" d="M8.00002 23.9831C13.3918 23.9831 17.7627 19.6122 17.7627 14.2204C17.7627 8.82855 13.3918 4.45764 8.00002 4.45764C2.60822 4.45764 -1.7627 8.82855 -1.7627 14.2204C-1.7627 19.6122 2.60822 23.9831 8.00002 23.9831Z" stroke="#242424" stroke-linecap="round" stroke-linejoin="round"/>
<path d="M4.33911 11.7797L8.00013 15.4407L12.8815 10.5593" stroke="#242424" stroke-linecap="round" stroke-linejoin="round"/>
<path d="M0.677983 14.2203H-1.7627" stroke="#242424" stroke-linecap="round" stroke-linejoin="round"/>
<path d="M17.7627 14.2203H15.322" stroke="#242424" stroke-linecap="round" stroke-linejoin="round"/>
<path d="M8.00006 6.89832V4.45764" stroke="#242424" stroke-linecap="round" stroke-linejoin="round"/>
<path d="M8.00006 23.983V21.5424" stroke="#242424" stroke-linecap="round" stroke-linejoin="round"/>
<path d="M4.94928 1.4068H11.051" stroke="#242424" stroke-linecap="round"/>
<path d="M8.00006 3.72544V2.01697" stroke="#242424" stroke-linecap="square"/>
</svg>
